<svg xmlns="http://www.w3.org/2000/svg" width="23.283" height="23.282" viewBox="0 0 23.283 23.282">
  <path id="Icon_awesome-linkedin-in" data-name="Icon awesome-linkedin-in" d="M5.212,23.283H.385V7.739H5.212ZM2.8,5.618A2.809,2.809,0,1,1,5.591,2.8,2.819,2.819,0,0,1,2.8,5.618ZM23.278,23.283H18.461V15.716c0-1.8-.036-4.116-2.51-4.116-2.51,0-2.894,1.959-2.894,3.986v7.7H8.235V7.739h4.63v2.12h.068A5.072,5.072,0,0,1,17.5,7.349c4.885,0,5.783,3.217,5.783,7.4v8.539Z" transform="translate(0 -0.001)" fill="#333"/>
</svg>
