<svg xmlns="http://www.w3.org/2000/svg" width="29.12" height="20.475" viewBox="0 0 29.12 20.475">
  <path id="Icon_awesome-youtube" data-name="Icon awesome-youtube" d="M29.561,7.7a3.659,3.659,0,0,0-2.575-2.591C24.716,4.5,15.61,4.5,15.61,4.5S6.5,4.5,4.233,5.112A3.659,3.659,0,0,0,1.658,7.7a38.384,38.384,0,0,0-.608,7.055,38.384,38.384,0,0,0,.608,7.055,3.6,3.6,0,0,0,2.575,2.55c2.271.612,11.377.612,11.377.612s9.106,0,11.377-.612a3.6,3.6,0,0,0,2.575-2.55,38.383,38.383,0,0,0,.608-7.055A38.384,38.384,0,0,0,29.561,7.7ZM12.632,19.088V10.428l7.611,4.33-7.611,4.33Z" transform="translate(-1.05 -4.5)" fill="#333"/>
</svg>
